<svg version="1.2" xmlns="http://www.w3.org/2000/svg" viewBox="0 0 633 196" width="633" height="196">
	<title>logo-guidelines-svg</title>
	<style>
		.s0 { fill: #161721 } 
		.s1 { fill: #ff322e } 
	</style>
	<g id="vertex-it">
		<path id="Layer" fill-rule="evenodd" class="s0" d="m136.6 88.8l23.2-54.5q8.4 1 17.6 1.3l-35.2 74.8h-10.9l-35.5-74.8q9.1-0.2 18.1-1.3zm122.1-10.8h-57.7q0.7 9.1 7.5 14.1 6.9 4.9 17.2 4.9 13.1 0 21.9-7.7 4.1 6 8.9 10.6-13.9 11.4-32.1 11.3-17.9 0-28.9-10.7-10.9-10.9-10.9-28 0-16.6 10.7-27.4 10.7-10.8 27.1-10.8 16.7 0 26.8 10.3 10.2 10.3 10.2 27 0 3.5-0.7 6.4zm-57.9-11.8h43q-0.4-7.4-6.1-12.3-5.6-5-15.3-5-10 0-15.8 5.4-5.8 5.3-5.8 11.9zm74.8 44.1v-74.8q8-0.4 15.9-1.3v12q2.7-5.1 9.3-8.5 6.6-3.4 13.7-3.4 2.2 0 5.2 0.4l-3.3 15.4q-1.4-0.3-4.2-0.3-8.9 0-14.5 5.3-5.6 5.3-5.6 13.6v41.6zm50.9-75.4h8.9v-18.1q8.9 0 15.9-0.3v18.4h21.1q-0.3 4.5-0.3 13.9l-20.8 0.4v36.4q0 10.8 8.3 10.9 5.5 0 12.8-2.9 1.5 7.1 4.1 13.4-8.3 4.2-21.1 4.2-10.2 0-15.2-5.1-4.8-5.2-4.8-16.2v-40.6l-8.9 0.2zm131.7 43.1h-57.7q0.8 9.1 7.6 14.1 6.9 4.9 17.2 4.9 13 0 21.8-7.7 4.1 6 9 10.6-13.9 11.4-32.1 11.3-18 0-28.9-10.8-10.9-10.8-10.9-27.9 0-16.6 10.6-27.4 10.8-10.8 27.1-10.8 16.7 0 26.8 10.3 10.3 10.3 10.3 27 0 3.5-0.8 6.4zm-57.8-11.8h42.9q-0.4-7.5-6-12.3-5.6-5-15.4-5-10 0-15.7 5.4-5.8 5.3-5.8 11.9zm65.1 43.5l28.4-37.8-27.5-36.4q8.5-0.4 18.9-1.3l18.3 24.5 18-24.5q10.3 0.9 18.9 1.3l-27.4 36.6 28.4 37.6q-9.1 0-19.5 1.3l-18.6-25.7-18.8 25.7q-9.9-1.3-19.1-1.3z"/>
		<path id="Layer" class="s1" d="m561.5 1.8q4.5 0 7.8 3.2 3.2 3.2 3.2 7.5 0 4.4-3.2 7.7-3.3 3.2-7.8 3.2-4.7 0-7.9-2.9-3.2-3.1-3.2-7.7 0-4.8 3.2-7.9 3.2-3.1 7.9-3.1zm-8.5 33.2h16.2v75.4h-16.2zm30.1 0h8.9v-18.1q8.9 0 15.9-0.3v18.4h21.1q-0.3 4.5-0.3 13.8l-20.8 0.5v36.4q0 10.8 8.3 10.9 5.5 0 12.8-2.9 1.5 7.1 4.1 13.3-8.3 4.3-21.1 4.3-10.2 0-15.2-5.1-4.8-5.2-4.8-16.3v-40.5l-8.9 0.2z"/>
		<path id="Layer" class="s1" d="m11.6 107.3c-6.4 0-11.6-5.1-11.6-11.6 0-6.4 5.2-11.6 11.6-11.6 6.5 0 11.7 5.2 11.7 11.6 0 6.5-5.2 11.6-11.7 11.6z"/>
		<path id="Layer" class="s1" d="m42.5 75c-10.1 0-18.2-8.2-18.2-18.2 0-10.1 8.1-18.2 18.2-18.2 10 0 18.2 8.1 18.2 18.2 0 10-8.2 18.2-18.2 18.2z"/>
	</g>
	<path id="voiler" class="s1" aria-label="voiler"  d="m425.2 144.7l18 39.3h7.4l18-39.3c-4.3-0.1-8.4-0.5-12.2-1.1l-9.5 25.6-9.3-25.6c-4 0.6-8.2 1-12.4 1.1zm44.9 19.5c0 12.3 9.6 20.3 21.6 20.3 12.3 0 21.3-8.7 21.3-20.3 0-11.6-9.2-20.3-21.6-20.3-11.7 0-21.3 8.3-21.3 20.3zm31 0c0 6.3-3.6 9.6-9.5 9.6-5.8 0-9.8-3.8-9.8-9.6 0-5.6 4-9.6 9.7-9.6 5.9 0 9.6 3.6 9.6 9.6zm24.9-37.4c-4 0-7.1 2.8-7.1 7 0 4 3.2 6.8 7.1 6.8 3.8 0 7-3.2 7-6.9 0-3.8-3.1-6.9-7-6.9zm5.6 17.4h-11.3v39.8h11.3zm8.6-18v45.5c0 8.4 3.1 12.7 9.2 12.7 2.8 0 5.1-0.6 7.4-1.8-0.7-3-1.5-5.9-2.3-9-0.3 0.1-0.7 0.3-1.2 0.3-1.2 0-1.8-0.8-1.8-2.7v-46c-3.7 0.4-7.5 0.8-11.3 1zm31 41.7h28.2c0.4-1.5 0.6-2.8 0.6-4.3 0-11.7-8.2-19.7-19.7-19.7-11.9 0-20.3 8.5-20.3 20.1 0 11.9 8.3 20.4 21.2 20.4 6.6 0 12.1-1.6 16.9-5.5-1.7-2-3.7-4.4-5.5-7.2-2.4 1.9-6 3.1-10.4 3.1-5.5 0-10.2-2-11-6.9zm18.1-7.9h-18.2c-0.1-2.3 2.6-6.3 9.1-6.3 6 0 8.8 3.4 9.1 6.3zm18.1-15.3v39.3h11.5v-18.3c0-7.4 2.5-11.3 8.1-11.3 1 0 2.8 0.1 3.8 0.3l2.2-10.5c-1.2-0.2-2.8-0.3-3.8-0.3-4.5 0-9 2.2-10.9 5.1v-5.4c-3.7 0.5-7.3 0.8-10.9 1.1z"/>
</svg>